<?xml version="1.0" encoding="UTF-8"?>
<svg width="200" height="200" viewBox="0 0 200 200" fill="none" xmlns="http://www.w3.org/2000/svg">
  <!-- Main Flower -->
  <g opacity="0.8">
    <!-- Petals -->
    <path d="M40,40 Q60,20 80,40 T120,40 Q140,20 160,40 Q180,60 160,80 T160,120 Q180,140 160,160 Q140,180 120,160 T80,160 Q60,180 40,160 Q20,140 40,120 T40,80 Q20,60 40,40 Z" 
          fill="rgba(147, 51, 234, 0.2)" />
    <!-- Center -->
    <circle cx="100" cy="100" r="15" fill="rgba(147, 51, 234, 0.3)" />
  </g>

  <!-- Decorative Swirls -->
  <path d="M20,20 Q40,40 20,60 T20,100 Q40,120 20,140" 
        stroke="rgba(147, 51, 234, 0.4)" 
        stroke-width="2" 
        fill="none" />
  
  <path d="M180,20 Q160,40 180,60 T180,100 Q160,120 180,140" 
        stroke="rgba(147, 51, 234, 0.4)" 
        stroke-width="2" 
        fill="none" />

  <!-- Small Flowers -->
  <g opacity="0.6">
    <!-- Top Left -->
    <circle cx="30" cy="30" r="8" fill="rgba(147, 51, 234, 0.2)" />
    <circle cx="30" cy="30" r="4" fill="rgba(147, 51, 234, 0.3)" />
    
    <!-- Bottom Right -->
    <circle cx="170" cy="170" r="8" fill="rgba(147, 51, 234, 0.2)" />
    <circle cx="170" cy="170" r="4" fill="rgba(147, 51, 234, 0.3)" />
  </g>

  <!-- Leaves -->
  <path d="M60,140 Q80,120 100,140 T140,140" 
        stroke="rgba(147, 51, 234, 0.3)" 
        stroke-width="2" 
        fill="none" />
  
  <path d="M140,60 Q120,80 100,60 T60,60" 
        stroke="rgba(147, 51, 234, 0.3)" 
        stroke-width="2" 
        fill="none" />

  <!-- Dots -->
  <g opacity="0.4">
    <circle cx="50" cy="50" r="2" fill="rgba(147, 51, 234, 0.5)" />
    <circle cx="150" cy="50" r="2" fill="rgba(147, 51, 234, 0.5)" />
    <circle cx="50" cy="150" r="2" fill="rgba(147, 51, 234, 0.5)" />
    <circle cx="150" cy="150" r="2" fill="rgba(147, 51, 234, 0.5)" />
  </g>
</svg>
